<?xml version="1.0" standalone="no"?>
<!DOCTYPE svg PUBLIC "-//W3C//DTD SVG 20010904//EN"
 "http://www.w3.org/TR/2001/REC-SVG-20010904/DTD/svg10.dtd">
<svg version="1.0" xmlns="http://www.w3.org/2000/svg"
 width="801.000000pt" height="801.000000pt" viewBox="0 0 801.000000 801.000000"
 preserveAspectRatio="xMidYMid meet">
<metadata>
Created by potrace 1.14, written by Peter Selinger 2001-2017
</metadata>
<g transform="translate(0.000000,801.000000) scale(0.100000,-0.100000)"
fill="#000000" stroke="none">
<path d="M4143 7843 c-732 -1079 -1346 -2336 -1733 -3549 -55 -174 -72 -201
-131 -210 -22 -3 -159 25 -394 80 -343 80 -361 85 -387 115 -39 44 -36 77 21
227 312 825 723 1656 1189 2409 181 292 489 745 682 1003 17 23 29 42 27 42
-3 0 -68 -11 -144 -25 -654 -121 -1244 -391 -1782 -818 -162 -128 -480 -446
-608 -608 -494 -623 -779 -1318 -865 -2109 -19 -177 -16 -662 6 -845 78 -669
317 -1305 685 -1833 l58 -82 17 107 c97 601 236 1212 411 1801 101 343 108
356 188 368 39 6 734 -165 772 -190 14 -9 33 -33 42 -52 17 -34 16 -39 -51
-310 -190 -775 -316 -1567 -371 -2334 -8 -118 -17 -243 -20 -278 l-4 -63 87
-56 c472 -305 1042 -517 1597 -592 1113 -153 2195 143 3065 836 169 134 484
448 616 613 484 607 769 1291 861 2065 13 112 17 226 17 445 0 318 -12 472
-60 730 -106 575 -345 1135 -685 1605 -44 60 -88 121 -99 134 l-20 23 -142
-82 c-481 -278 -819 -527 -1619 -1195 -428 -358 -531 -434 -898 -669 -166
-106 -491 -265 -886 -433 -214 -91 -969 -393 -973 -388 -6 6 140 303 213 430
304 535 730 1020 1234 1404 733 558 1652 930 2736 1107 88 14 161 27 163 28 1
2 -71 75 -160 162 -640 629 -1448 1015 -2338 1118 -74 9 -153 16 -176 16 l-41
0 -100 -147z m1947 -3603 c370 -22 702 -64 1073 -136 235 -45 267 -55 267 -79
0 -24 -46 -51 -182 -105 -784 -310 -1526 -492 -2343 -572 -177 -17 -917 -17
-1085 0 -390 40 -810 124 -1015 202 l-30 11 50 31 c145 91 470 231 750 323
563 187 1123 289 1800 328 128 8 567 6 715 -3z m-2815 -954 c815 -129 1532
-601 2037 -1341 225 -330 484 -824 611 -1165 54 -148 53 -153 -12 -38 -234
416 -561 737 -949 932 -48 24 -170 77 -272 119 -798 323 -1404 685 -1755 1048
-60 63 -132 144 -158 181 -48 68 -111 190 -122 240 -7 25 -5 27 42 33 26 4 53
8 58 11 24 10 429 -6 520 -20z"/>
</g>
</svg>
